<svg xmlns="http://www.w3.org/2000/svg" xmlns:xlink="http://www.w3.org/1999/xlink" width="1000" zoomAndPan="magnify" viewBox="0 0 750 749.999995" height="1000" preserveAspectRatio="xMidYMid meet" version="1.0"><defs><clipPath id="c334b37e52"><path d="M 40.046875 282.804688 L 265.046875 282.804688 L 265.046875 507.804688 L 40.046875 507.804688 Z M 40.046875 282.804688 " clip-rule="nonzero"/></clipPath><clipPath id="90fee90aef"><path d="M 502.484375 37.859375 L 694.484375 37.859375 L 694.484375 232.109375 L 502.484375 232.109375 Z M 502.484375 37.859375 " clip-rule="nonzero"/></clipPath><clipPath id="8865a595b2"><path d="M 608.59375 612.011719 L 694.734375 612.011719 L 694.734375 699.011719 L 608.59375 699.011719 Z M 608.59375 612.011719 " clip-rule="nonzero"/></clipPath><clipPath id="434c1bcf1a"><path d="M 96.296875 586.695312 L 208.796875 586.695312 L 208.796875 699.195312 L 96.296875 699.195312 Z M 96.296875 586.695312 " clip-rule="nonzero"/></clipPath><clipPath id="fc4b97ad40"><path d="M 137.25 425.445312 L 362.25 425.445312 L 362.25 650.445312 L 137.25 650.445312 Z M 137.25 425.445312 " clip-rule="nonzero"/></clipPath><clipPath id="6c947ab34e"><path d="M 439.445312 357.804688 L 568.445312 357.804688 L 568.445312 507.804688 L 439.445312 507.804688 Z M 439.445312 357.804688 " clip-rule="nonzero"/></clipPath><clipPath id="0993a8ef0e"><path d="M 40.046875 45.054688 L 340 45.054688 L 340 204.054688 L 40.046875 204.054688 Z M 40.046875 45.054688 " clip-rule="nonzero"/></clipPath></defs><g clip-path="url(#c334b37e52)"><path stroke-linecap="butt" transform="matrix(0.75, 0, 0, 0.75, 40.04762, 282.805554)" fill="none" stroke-linejoin="miter" d="M -0.000993838 -0.00115562 L 299.999021 -0.00115562 L 299.999021 299.998859 L -0.000993838 299.998859 Z M -0.000993838 -0.00115562 " stroke="#ff5748" stroke-width="10" stroke-opacity="1" stroke-miterlimit="4"/></g><g clip-path="url(#90fee90aef)"><path stroke-linecap="butt" transform="matrix(0.75, 0, 0, 0.75, 502.486034, 37.860018)" fill="none" stroke-linejoin="miter" d="M -0.00221222 -0.00085754 L 256.320733 -0.00085754 L 256.320733 259.405422 L -0.00221222 259.405422 Z M -0.00221222 -0.00085754 " stroke="#003339" stroke-width="10" stroke-opacity="1" stroke-miterlimit="4"/></g><g clip-path="url(#8865a595b2)"><path stroke-linecap="butt" transform="matrix(0.75, 0, 0, 0.75, 608.593461, 612.01199)" fill="none" stroke-linejoin="miter" d="M 0.000385345 -0.000361899 L 114.85455 -0.000361899 L 114.85455 116.234011 L 0.000385345 116.234011 Z M 0.000385345 -0.000361899 " stroke="#003339" stroke-width="10" stroke-opacity="1" stroke-miterlimit="4"/></g><g clip-path="url(#434c1bcf1a)"><path stroke-linecap="butt" transform="matrix(0.75, 0, 0, 0.75, 96.29761, 586.694055)" fill="none" stroke-linejoin="miter" d="M -0.000979943 0.00167612 L 149.999027 0.00167612 L 149.999027 150.001683 L -0.000979943 150.001683 Z M -0.000979943 0.00167612 " stroke="#ff5748" stroke-width="8" stroke-opacity="1" stroke-miterlimit="4"/></g><g clip-path="url(#fc4b97ad40)"><path stroke-linecap="butt" transform="matrix(0.75, 0, 0, 0.75, 137.249996, 425.444039)" fill="none" stroke-linejoin="miter" d="M 0.00000538487 0.00169764 L 300.00002 0.00169764 L 300.00002 300.001712 L 0.00000538487 300.001712 Z M 0.00000538487 0.00169764 " stroke="#ff5748" stroke-width="8" stroke-opacity="1" stroke-miterlimit="4"/></g><g clip-path="url(#6c947ab34e)"><path fill="#003339" d="M 523.652344 404.421875 C 526.429688 404.421875 528.703125 406.695312 528.703125 409.472656 C 528.703125 412.25 526.429688 414.523438 523.652344 414.523438 C 520.875 414.523438 518.601562 412.25 518.601562 409.472656 C 518.601562 406.695312 520.824219 404.421875 523.652344 404.421875 Z M 484.054688 404.421875 C 486.832031 404.421875 489.105469 406.695312 489.105469 409.472656 C 489.105469 412.25 486.832031 414.523438 484.054688 414.523438 C 481.277344 414.523438 479.003906 412.25 479.003906 409.472656 C 479.003906 406.695312 481.277344 404.421875 484.054688 404.421875 Z M 444.511719 404.421875 C 447.289062 404.421875 449.5625 406.695312 449.5625 409.472656 C 449.5625 412.25 447.289062 414.523438 444.511719 414.523438 C 441.730469 414.523438 439.460938 412.25 439.460938 409.472656 C 439.460938 406.695312 441.730469 404.421875 444.511719 404.421875 Z M 563.195312 404.421875 C 565.976562 404.421875 568.246094 406.695312 568.246094 409.472656 C 568.246094 412.25 565.976562 414.523438 563.195312 414.523438 C 560.417969 414.523438 558.144531 412.25 558.144531 409.472656 C 558.144531 406.695312 560.417969 404.421875 563.195312 404.421875 Z M 523.652344 451.089844 C 526.429688 451.089844 528.703125 453.359375 528.703125 456.140625 C 528.703125 458.917969 526.429688 461.1875 523.652344 461.1875 C 520.875 461.1875 518.601562 458.917969 518.601562 456.140625 C 518.601562 453.359375 520.824219 451.089844 523.652344 451.089844 Z M 484.054688 451.089844 C 486.832031 451.089844 489.105469 453.359375 489.105469 456.140625 C 489.105469 458.917969 486.832031 461.1875 484.054688 461.1875 C 481.277344 461.1875 479.003906 458.917969 479.003906 456.140625 C 479.003906 453.359375 481.277344 451.089844 484.054688 451.089844 Z M 444.511719 451.089844 C 447.289062 451.089844 449.5625 453.359375 449.5625 456.140625 C 449.5625 458.917969 447.289062 461.1875 444.511719 461.1875 C 441.730469 461.1875 439.460938 458.917969 439.460938 456.140625 C 439.460938 453.359375 441.730469 451.089844 444.511719 451.089844 Z M 563.195312 451.089844 C 565.976562 451.089844 568.246094 453.359375 568.246094 456.140625 C 568.246094 458.917969 565.976562 461.1875 563.195312 461.1875 C 560.417969 461.1875 558.144531 458.917969 558.144531 456.140625 C 558.144531 453.359375 560.417969 451.089844 563.195312 451.089844 Z M 523.652344 357.804688 C 526.429688 357.804688 528.703125 360.078125 528.703125 362.855469 C 528.703125 365.632812 526.429688 367.90625 523.652344 367.90625 C 520.875 367.90625 518.601562 365.632812 518.601562 362.855469 C 518.601562 360.078125 520.824219 357.804688 523.652344 357.804688 Z M 484.054688 357.804688 C 486.832031 357.804688 489.105469 360.078125 489.105469 362.855469 C 489.105469 365.632812 486.832031 367.90625 484.054688 367.90625 C 481.277344 367.90625 479.003906 365.632812 479.003906 362.855469 C 479.003906 360.078125 481.277344 357.804688 484.054688 357.804688 Z M 444.511719 357.804688 C 447.289062 357.804688 449.5625 360.078125 449.5625 362.855469 C 449.5625 365.632812 447.289062 367.90625 444.511719 367.90625 C 441.730469 367.90625 439.460938 365.632812 439.460938 362.855469 C 439.460938 360.078125 441.730469 357.804688 444.511719 357.804688 Z M 563.195312 357.804688 C 565.976562 357.804688 568.246094 360.078125 568.246094 362.855469 C 568.246094 365.632812 565.976562 367.90625 563.195312 367.90625 C 560.417969 367.90625 558.144531 365.632812 558.144531 362.855469 C 558.144531 360.078125 560.417969 357.804688 563.195312 357.804688 Z M 523.652344 497.703125 C 526.429688 497.703125 528.703125 499.976562 528.703125 502.753906 C 528.703125 505.53125 526.429688 507.804688 523.652344 507.804688 C 520.875 507.804688 518.601562 505.53125 518.601562 502.753906 C 518.601562 499.976562 520.824219 497.703125 523.652344 497.703125 Z M 484.054688 497.703125 C 486.832031 497.703125 489.105469 499.976562 489.105469 502.753906 C 489.105469 505.53125 486.832031 507.804688 484.054688 507.804688 C 481.277344 507.804688 479.003906 505.53125 479.003906 502.753906 C 479.003906 499.976562 481.277344 497.703125 484.054688 497.703125 Z M 444.511719 497.703125 C 447.289062 497.703125 449.5625 499.976562 449.5625 502.753906 C 449.5625 505.53125 447.289062 507.804688 444.511719 507.804688 C 441.730469 507.804688 439.460938 505.53125 439.460938 502.753906 C 439.460938 499.976562 441.730469 497.703125 444.511719 497.703125 Z M 563.195312 497.703125 C 565.976562 497.703125 568.246094 499.976562 568.246094 502.753906 C 568.246094 505.53125 565.976562 507.804688 563.195312 507.804688 C 560.417969 507.804688 558.144531 505.53125 558.144531 502.753906 C 558.144531 499.976562 560.417969 497.703125 563.195312 497.703125 Z M 563.195312 497.703125 " fill-opacity="1" fill-rule="nonzero"/></g><g clip-path="url(#0993a8ef0e)"><path fill="#003339" d="M 40.933594 45.054688 L 40.933594 84.929688 L 92.246094 124.636719 L 40.933594 164.183594 L 40.933594 204.054688 L 143.71875 124.472656 Z M 138.65625 45.054688 L 138.65625 84.929688 L 189.964844 124.636719 L 138.65625 164.183594 L 138.65625 204.054688 L 241.441406 124.472656 Z M 236.375 45.054688 L 236.375 84.929688 L 287.6875 124.636719 L 236.375 164.183594 L 236.375 204.054688 L 339.160156 124.472656 Z M 236.375 45.054688 " fill-opacity="1" fill-rule="nonzero"/></g></svg>