<svg xmlns="http://www.w3.org/2000/svg" xmlns:xlink="http://www.w3.org/1999/xlink" width="500" zoomAndPan="magnify" viewBox="0 0 375 149.999998" height="200" preserveAspectRatio="xMidYMid meet" version="1.0"><defs><g/><clipPath id="186e647b08"><path d="M 26 104 L 53 104 L 53 129.695312 L 26 129.695312 Z M 26 104 " clip-rule="nonzero"/></clipPath><clipPath id="decd07b1ec"><path d="M 9.75 80 L 24 80 L 24 91 L 9.75 91 Z M 9.75 80 " clip-rule="nonzero"/></clipPath><clipPath id="57b014c4be"><path d="M 11 22.445312 L 40 22.445312 L 40 53 L 11 53 Z M 11 22.445312 " clip-rule="nonzero"/></clipPath><clipPath id="ca77f31b92"><path d="M 39 22.445312 L 67 22.445312 L 67 53 L 39 53 Z M 39 22.445312 " clip-rule="nonzero"/></clipPath><clipPath id="6128abfdfa"><path d="M 255.386719 97.253906 L 367.421875 97.253906 L 367.421875 129.613281 L 255.386719 129.613281 Z M 255.386719 97.253906 " clip-rule="nonzero"/></clipPath></defs><path fill="#ffffff" d="M 48 88.402344 C 46.363281 89.503906 43.988281 90.082031 42.371094 91.632812 C 40.804688 93.136719 39.945312 95.542969 41.148438 100.21875 C 41.148438 100.21875 42.1875 100.328125 43.722656 100.734375 C 45.027344 101.078125 46.6875 101.632812 48.371094 102.507812 C 49.503906 103.09375 50.648438 103.828125 51.703125 104.738281 L 57.714844 98.46875 C 57.714844 98.46875 58.820312 92.578125 56.285156 87.730469 C 55.898438 86.992188 55.425781 86.273438 54.851562 85.605469 L 54.855469 85.605469 C 55.007812 85.605469 57.855469 85.671875 60.371094 90.5 C 60.371094 90.5 63.585938 84 68.203125 83.089844 C 68.203125 83.089844 68.269531 82.878906 68.355469 82.519531 C 68.691406 81.144531 69.347656 77.621094 67.851562 75.679688 C 67.21875 74.855469 66.746094 73.9375 66.425781 73.007812 C 65.785156 71.171875 65.710938 69.289062 66.035156 67.992188 C 66.035156 67.992188 65.929688 67.160156 65.414062 65.933594 C 64.90625 64.730469 64 63.148438 62.402344 61.589844 C 60.976562 60.203125 58.996094 58.835938 56.246094 57.785156 L 59.601562 56.039062 C 59.601562 56.039062 59.148438 55.632812 58.296875 55.140625 C 56.964844 54.371094 54.667969 53.378906 51.644531 53.378906 C 48.25 53.378906 43.941406 54.628906 39.050781 58.835938 L 39.050781 85.746094 C 43.175781 85.257812 47.507812 83.089844 47.507812 83.089844 C 47.507812 83.089844 51.214844 86.234375 48 88.402344 Z M 42.519531 71.222656 C 42.511719 71.167969 42.503906 71.109375 42.496094 71.046875 C 42.496094 71.046875 48.53125 74.6875 53.042969 69.785156 C 54 68.75 55.246094 68.023438 56.636719 67.789062 C 58.871094 67.40625 61.878906 67.832031 63.152344 72.207031 L 60.109375 72.207031 C 60.109375 72.207031 57.804688 78.757812 52.507812 78.335938 L 53.085938 81.746094 C 53.085938 81.746094 49.414062 79.542969 48.628906 75.765625 C 48.628906 75.769531 43.304688 75.972656 42.519531 71.222656 Z M 42.519531 71.222656 " fill-opacity="1" fill-rule="nonzero"/><g clip-path="url(#186e647b08)"><path fill="#ffffff" d="M 48.980469 112.652344 C 49.457031 114.351562 51.753906 116.167969 52.675781 117.675781 C 51.710938 119.949219 50.46875 122.011719 48.871094 123.898438 C 48.878906 121.511719 48.289062 119.484375 47.058594 117.441406 C 46.992188 119.773438 46.207031 122.082031 44.839844 123.96875 C 44.066406 125.035156 43.117188 125.960938 42.179688 126.878906 C 41.261719 127.773438 40.34375 128.667969 39.425781 129.566406 C 38.511719 128.671875 37.59375 127.773438 36.679688 126.878906 C 35.734375 125.960938 34.789062 125.035156 34.015625 123.96875 C 32.648438 122.082031 31.863281 119.773438 31.800781 117.441406 C 30.566406 119.484375 29.976562 121.515625 29.984375 123.898438 C 29.136719 122.898438 28.390625 121.847656 27.730469 120.742188 C 27.144531 119.765625 26.632812 118.746094 26.179688 117.675781 C 27.074219 116.214844 28.875 114.476562 29.425781 112.824219 C 29.441406 112.769531 29.460938 112.714844 29.472656 112.660156 L 27.910156 114.082031 L 26.09375 115.730469 C 26.171875 115.589844 26.246094 115.449219 26.320312 115.308594 C 27.089844 113.832031 27.664062 112.253906 28.027344 110.628906 C 28.183594 109.921875 28.296875 109.207031 28.371094 108.488281 C 30.019531 107.324219 32.238281 106.300781 34.492188 105.546875 C 37.695312 104.472656 41.160156 104.472656 44.363281 105.546875 C 46.617188 106.300781 48.835938 107.324219 50.480469 108.488281 C 50.742188 111.023438 51.523438 113.5 52.761719 115.726562 Z M 48.980469 112.652344 " fill-opacity="1" fill-rule="nonzero"/></g><path fill="#ffffff" d="M 35.582031 71.222656 C 35.59375 71.167969 35.601562 71.109375 35.609375 71.046875 C 35.609375 71.046875 29.574219 74.6875 25.058594 69.785156 C 24.105469 68.75 22.855469 68.023438 21.46875 67.789062 C 19.230469 67.40625 16.226562 67.832031 14.953125 72.207031 L 17.992188 72.207031 C 15.542969 72.28125 13.367188 72.628906 11.679688 73.003906 C 12.320312 71.171875 12.394531 69.289062 12.070312 67.992188 C 12.070312 67.992188 12.171875 67.160156 12.691406 65.933594 C 19.886719 60.578125 24.960938 66.03125 25.28125 66.03125 C 34.484375 66.03125 36.253906 68.96875 36.253906 68.96875 C 36.085938 69.9375 35.839844 70.671875 35.582031 71.222656 Z M 35.582031 71.222656 " fill-opacity="1" fill-rule="nonzero"/><g clip-path="url(#decd07b1ec)"><path fill="#ffffff" d="M 23.246094 85.605469 C 23.09375 85.605469 20.246094 85.671875 17.730469 90.5 C 17.730469 90.5 14.515625 84 9.902344 83.089844 C 9.902344 83.089844 9.835938 82.875 9.746094 82.519531 C 10.589844 81.488281 12.003906 80.578125 14.324219 80.800781 C 14.324219 80.800781 18.808594 85.476562 23.246094 85.605469 Z M 23.246094 85.605469 " fill-opacity="1" fill-rule="nonzero"/></g><path fill="#000000" d="M 23.253906 85.605469 L 21.816406 87.730469 C 22.207031 86.992188 22.679688 86.273438 23.253906 85.605469 Z M 23.253906 85.605469 " fill-opacity="1" fill-rule="nonzero"/><path fill="#ffffff" d="M 36.957031 100.21875 C 36.957031 100.21875 35.914062 100.328125 34.378906 100.734375 C 31.675781 99.558594 28.367188 99.832031 25.628906 100.984375 C 25.628906 100.984375 28.148438 97.910156 33.320312 98.050781 C 33.320312 98.050781 31.015625 95.605469 25.632812 97.28125 C 25.738281 97.207031 29.664062 93.964844 32.972656 94.308594 C 32.972656 94.308594 27.832031 92.492188 23.535156 93.925781 C 23.664062 93.820312 28.660156 89.832031 35.734375 91.632812 C 37.300781 93.132812 38.15625 95.542969 36.957031 100.21875 Z M 36.957031 100.21875 " fill-opacity="1" fill-rule="nonzero"/><path fill="#ffffff" d="M 33.039062 59.984375 C 25.277344 56.972656 18.851562 59.695312 15.699219 61.589844 C 17.128906 60.203125 19.109375 58.835938 21.855469 57.785156 L 18.5 56.035156 C 18.5 56.035156 18.957031 55.632812 19.804688 55.140625 C 28.910156 54.484375 33.039062 59.984375 33.039062 59.984375 Z M 33.039062 59.984375 " fill-opacity="1" fill-rule="nonzero"/><path fill="#ffffff" d="M 21.507812 71.046875 C 21.507812 71.046875 20.457031 73.421875 22.867188 74.710938 C 25.28125 76.003906 27.246094 74.851562 27.246094 74.851562 L 23.523438 71.363281 L 24.835938 73.433594 Z M 21.507812 71.046875 " fill-opacity="1" fill-rule="nonzero"/><g clip-path="url(#57b014c4be)"><path fill="#ffffff" d="M 39.050781 22.480469 L 28.425781 29.332031 C 28.425781 29.332031 34.648438 37.160156 33.320312 43.382812 C 33.320312 43.382812 20.25 46.25 21.785156 32.898438 L 11.679688 37.023438 C 11.679688 37.023438 15.214844 42.476562 16.613281 49.957031 C 16.613281 49.957031 28.148438 44.152344 39.050781 52.402344 L 39.050781 43.722656 C 38.308594 41.183594 35.855469 33.328125 33.40625 31.097656 L 39.050781 26.640625 Z M 18.097656 45.621094 L 15.699219 39.015625 L 18.675781 37.441406 C 19.722656 43.839844 18.097656 45.621094 18.097656 45.621094 Z M 18.097656 45.621094 " fill-opacity="1" fill-rule="nonzero"/></g><path fill="#ffffff" d="M 42.519531 71.222656 C 42.511719 71.167969 42.503906 71.109375 42.496094 71.046875 C 42.496094 71.046875 48.53125 74.6875 53.042969 69.785156 C 54 68.75 55.246094 68.023438 56.636719 67.789062 C 58.871094 67.40625 61.878906 67.832031 63.152344 72.207031 L 60.109375 72.207031 C 62.5625 72.28125 64.734375 72.628906 66.425781 73.003906 C 65.785156 71.171875 65.710938 69.289062 66.035156 67.992188 C 66.035156 67.992188 65.929688 67.160156 65.414062 65.933594 C 58.21875 60.578125 53.144531 66.03125 52.820312 66.03125 C 43.621094 66.03125 41.847656 68.96875 41.847656 68.96875 C 42.015625 69.9375 42.261719 70.671875 42.519531 71.222656 Z M 42.519531 71.222656 " fill-opacity="1" fill-rule="nonzero"/><path fill="#ffffff" d="M 54.855469 85.605469 C 55.007812 85.605469 57.855469 85.671875 60.371094 90.5 C 60.371094 90.5 63.585938 84 68.203125 83.089844 C 68.203125 83.089844 68.269531 82.875 68.355469 82.519531 C 67.511719 81.488281 66.101562 80.578125 63.78125 80.800781 C 63.78125 80.800781 59.292969 85.476562 54.855469 85.605469 Z M 54.855469 85.605469 " fill-opacity="1" fill-rule="nonzero"/><path fill="#000000" d="M 54.851562 85.605469 L 56.285156 87.730469 C 55.898438 86.992188 55.425781 86.273438 54.851562 85.605469 Z M 54.851562 85.605469 " fill-opacity="1" fill-rule="nonzero"/><path fill="#ffffff" d="M 41.148438 100.21875 C 41.148438 100.21875 42.1875 100.328125 43.722656 100.734375 C 46.425781 99.558594 49.734375 99.832031 52.472656 100.984375 C 52.472656 100.984375 49.957031 97.910156 44.785156 98.050781 C 44.785156 98.050781 47.089844 95.605469 52.46875 97.28125 C 52.367188 97.207031 48.4375 93.964844 45.132812 94.308594 C 45.132812 94.308594 50.269531 92.492188 54.566406 93.925781 C 54.441406 93.820312 49.441406 89.832031 42.371094 91.632812 C 40.804688 93.132812 39.945312 95.542969 41.148438 100.21875 Z M 41.148438 100.21875 " fill-opacity="1" fill-rule="nonzero"/><path fill="#ffffff" d="M 45.0625 59.984375 C 52.828125 56.972656 59.253906 59.695312 62.402344 61.589844 C 60.976562 60.203125 58.996094 58.835938 56.246094 57.785156 L 59.601562 56.035156 C 59.601562 56.035156 59.148438 55.632812 58.296875 55.140625 C 49.195312 54.484375 45.0625 59.984375 45.0625 59.984375 Z M 45.0625 59.984375 " fill-opacity="1" fill-rule="nonzero"/><path fill="#ffffff" d="M 56.597656 71.046875 C 56.597656 71.046875 57.648438 73.421875 55.234375 74.710938 C 52.824219 76.003906 50.855469 74.851562 50.855469 74.851562 L 54.578125 71.363281 L 53.269531 73.433594 Z M 56.597656 71.046875 " fill-opacity="1" fill-rule="nonzero"/><g clip-path="url(#ca77f31b92)"><path fill="#ffffff" d="M 39.050781 26.640625 L 44.695312 31.097656 C 42.246094 33.328125 39.796875 41.183594 39.050781 43.722656 L 39.050781 52.402344 C 49.957031 44.152344 61.492188 49.953125 61.492188 49.953125 C 62.890625 42.472656 66.425781 37.019531 66.425781 37.019531 L 56.320312 32.898438 C 57.855469 46.25 44.785156 43.382812 44.785156 43.382812 C 43.457031 37.160156 49.679688 29.332031 49.679688 29.332031 L 39.050781 22.480469 Z M 59.429688 37.441406 L 62.402344 39.015625 L 60.003906 45.621094 C 60.003906 45.621094 58.378906 43.839844 59.429688 37.441406 Z M 59.429688 37.441406 " fill-opacity="1" fill-rule="nonzero"/></g><path fill="#ffffff" d="M 31.800781 117.441406 C 30.566406 119.484375 29.976562 121.515625 29.984375 123.898438 C 29.136719 122.898438 28.390625 121.847656 27.730469 120.742188 C 28.734375 119.410156 30.074219 118.132812 31.800781 117.441406 Z M 31.800781 117.441406 " fill-opacity="1" fill-rule="nonzero"/><path fill="#ffffff" d="M 34.027344 108.203125 C 34.027344 108.203125 32.574219 110.109375 29.425781 112.824219 C 28.957031 113.226562 28.453125 113.644531 27.910156 114.082031 C 27.410156 114.480469 26.882812 114.890625 26.320312 115.308594 C 27.089844 113.832031 27.664062 112.253906 28.027344 110.628906 C 29.820312 109.960938 34.027344 108.203125 34.027344 108.203125 Z M 34.027344 108.203125 " fill-opacity="1" fill-rule="nonzero"/><path fill="#ffffff" d="M 47.054688 117.441406 C 48.289062 119.484375 48.878906 121.515625 48.871094 123.898438 C 49.71875 122.898438 50.464844 121.847656 51.125 120.742188 C 50.121094 119.410156 48.78125 118.132812 47.054688 117.441406 Z M 47.054688 117.441406 " fill-opacity="1" fill-rule="nonzero"/><path fill="#ffffff" d="M 44.828125 108.203125 C 44.828125 108.203125 46.28125 110.109375 49.429688 112.824219 C 49.898438 113.226562 50.402344 113.644531 50.945312 114.082031 C 51.445312 114.480469 51.972656 114.890625 52.535156 115.308594 C 51.765625 113.832031 51.191406 112.253906 50.828125 110.628906 C 49.035156 109.960938 44.828125 108.203125 44.828125 108.203125 Z M 44.828125 108.203125 " fill-opacity="1" fill-rule="nonzero"/><g fill="#ffffff" fill-opacity="1"><g transform="translate(79.813849, 93.015258)"><g><path d="M 43.203125 -34.3125 L 26.890625 -17.921875 L 44.8125 0 L 29.5625 0 L 15.84375 -13.703125 L 15.84375 0 L 4.015625 0 L 4.015625 -57.515625 L 15.84375 -57.515625 L 15.84375 -22.34375 L 27.8125 -34.3125 Z M 43.203125 -34.3125 "/></g></g></g><g fill="#ffffff" fill-opacity="1"><g transform="translate(117.800137, 93.015258)"><g><path d="M 5.140625 -53.421875 C 6.523438 -54.804688 8.175781 -55.5 10.09375 -55.5 C 12.007812 -55.5 13.660156 -54.804688 15.046875 -53.421875 C 16.429688 -52.046875 17.125 -50.398438 17.125 -48.484375 C 17.125 -46.566406 16.429688 -44.914062 15.046875 -43.53125 C 13.660156 -42.15625 12.007812 -41.46875 10.09375 -41.46875 C 8.175781 -41.46875 6.523438 -42.15625 5.140625 -43.53125 C 3.765625 -44.914062 3.078125 -46.566406 3.078125 -48.484375 C 3.078125 -50.398438 3.765625 -52.046875 5.140625 -53.421875 Z M 4.015625 -34.3125 L 4.015625 0 L 15.84375 0 L 15.84375 -34.3125 Z M 4.015625 -34.3125 "/></g></g></g><g fill="#ffffff" fill-opacity="1"><g transform="translate(132.780384, 93.015258)"><g><path d="M 4.015625 0 L 4.015625 -34.3125 L 15.84375 -34.3125 L 15.84375 -30.703125 L 15.984375 -30.703125 C 19.054688 -33.773438 22.332031 -35.3125 25.8125 -35.3125 C 27.507812 -35.3125 29.191406 -35.085938 30.859375 -34.640625 C 32.535156 -34.191406 34.140625 -33.5 35.671875 -32.5625 C 37.210938 -31.625 38.460938 -30.296875 39.421875 -28.578125 C 40.378906 -26.867188 40.859375 -24.878906 40.859375 -22.609375 L 40.859375 0 L 29.03125 0 L 29.03125 -19.390625 C 29.03125 -21.171875 28.457031 -22.726562 27.3125 -24.0625 C 26.175781 -25.40625 24.695312 -26.078125 22.875 -26.078125 C 21.09375 -26.078125 19.472656 -25.382812 18.015625 -24 C 16.566406 -22.625 15.84375 -21.085938 15.84375 -19.390625 L 15.84375 0 Z M 4.015625 0 "/></g></g></g><g fill="#ffffff" fill-opacity="1"><g transform="translate(171.769836, 93.015258)"><g><path d="M 2.46875 8.421875 L 12.171875 3.671875 C 13.953125 6.617188 17.050781 8.09375 21.46875 8.09375 C 23.519531 8.09375 25.425781 7.429688 27.1875 6.109375 C 28.945312 4.796875 29.828125 2.78125 29.828125 0.0625 L 29.828125 -2.46875 C 27.734375 -0.15625 23.988281 1 18.59375 1 C 13.644531 1 9.5625 -0.75 6.34375 -4.25 C 3.132812 -7.75 1.53125 -12.039062 1.53125 -17.125 C 1.53125 -22.207031 3.132812 -26.507812 6.34375 -30.03125 C 9.5625 -33.550781 13.644531 -35.3125 18.59375 -35.3125 C 23.007812 -35.3125 26.6875 -33.953125 29.625 -31.234375 L 29.828125 -31.234375 L 29.828125 -34.3125 L 41.65625 -34.3125 L 41.65625 0.9375 C 41.65625 6.507812 39.804688 10.8125 36.109375 13.84375 C 32.410156 16.875 27.53125 18.390625 21.46875 18.390625 C 11.65625 18.390625 5.320312 15.066406 2.46875 8.421875 Z M 16.40625 -22.9375 C 14.875 -21.425781 14.109375 -19.488281 14.109375 -17.125 C 14.109375 -14.757812 14.84375 -12.828125 16.3125 -11.328125 C 17.789062 -9.835938 19.734375 -9.09375 22.140625 -9.09375 C 24.453125 -9.09375 26.351562 -9.847656 27.84375 -11.359375 C 29.34375 -12.878906 30.09375 -14.800781 30.09375 -17.125 C 30.09375 -19.488281 29.320312 -21.425781 27.78125 -22.9375 C 26.25 -24.457031 24.367188 -25.21875 22.140625 -25.21875 C 19.859375 -25.21875 17.945312 -24.457031 16.40625 -22.9375 Z M 16.40625 -22.9375 "/></g></g></g><g fill="#ffffff" fill-opacity="1"><g transform="translate(212.230601, 93.015258)"><g><path d="M 25.078125 0 L 17.046875 0 L -1.34375 -34.3125 L 12.3125 -34.3125 L 20.671875 -15.78125 L 28.890625 -34.3125 L 37.046875 -34.3125 L 45.28125 -15.78125 L 53.640625 -34.3125 L 67.28125 -34.3125 L 48.890625 0 L 40.859375 0 L 32.96875 -17.71875 Z M 25.078125 0 "/></g></g></g><g fill="#ffffff" fill-opacity="1"><g transform="translate(272.955407, 93.015258)"><g><path d="M 38.71875 -15.515625 L 13.84375 -15.515625 C 13.84375 -13.109375 14.625 -11.320312 16.1875 -10.15625 C 17.75 -9 19.441406 -8.421875 21.265625 -8.421875 C 23.179688 -8.421875 24.695312 -8.675781 25.8125 -9.1875 C 26.925781 -9.707031 28.195312 -10.722656 29.625 -12.234375 L 38.1875 -7.953125 C 34.613281 -1.984375 28.679688 1 20.390625 1 C 15.222656 1 10.785156 -0.769531 7.078125 -4.3125 C 3.378906 -7.851562 1.53125 -12.117188 1.53125 -17.109375 C 1.53125 -22.109375 3.378906 -26.390625 7.078125 -29.953125 C 10.785156 -33.523438 15.222656 -35.3125 20.390625 -35.3125 C 25.835938 -35.3125 30.265625 -33.738281 33.671875 -30.59375 C 37.078125 -27.445312 38.78125 -22.957031 38.78125 -17.125 C 38.78125 -16.320312 38.757812 -15.785156 38.71875 -15.515625 Z M 14.171875 -22.0625 L 27.21875 -22.0625 C 26.945312 -23.851562 26.242188 -25.226562 25.109375 -26.1875 C 23.972656 -27.144531 22.515625 -27.625 20.734375 -27.625 C 18.765625 -27.625 17.203125 -27.109375 16.046875 -26.078125 C 14.890625 -25.054688 14.265625 -23.71875 14.171875 -22.0625 Z M 14.171875 -22.0625 "/></g></g></g><g fill="#ffffff" fill-opacity="1"><g transform="translate(308.065938, 93.015258)"><g><path d="M 39.3125 -30.03125 C 42.53125 -26.507812 44.140625 -22.207031 44.140625 -17.125 C 44.140625 -12.039062 42.53125 -7.75 39.3125 -4.25 C 36.101562 -0.75 32.023438 1 27.078125 1 C 22.535156 1 18.789062 -0.625 15.84375 -3.875 L 15.71875 -3.875 L 15.71875 0 L 4.015625 0 L 4.015625 -57.515625 L 15.84375 -57.515625 L 15.84375 -31.03125 C 18.789062 -33.882812 22.535156 -35.3125 27.078125 -35.3125 C 32.023438 -35.3125 36.101562 -33.550781 39.3125 -30.03125 Z M 29.359375 -11.328125 C 30.828125 -12.828125 31.5625 -14.757812 31.5625 -17.125 C 31.5625 -19.488281 30.789062 -21.425781 29.25 -22.9375 C 27.71875 -24.457031 25.816406 -25.21875 23.546875 -25.21875 C 21.316406 -25.21875 19.429688 -24.457031 17.890625 -22.9375 C 16.347656 -21.425781 15.578125 -19.488281 15.578125 -17.125 C 15.578125 -14.800781 16.320312 -12.878906 17.8125 -11.359375 C 19.3125 -9.847656 21.222656 -9.09375 23.546875 -9.09375 C 25.953125 -9.09375 27.890625 -9.835938 29.359375 -11.328125 Z M 29.359375 -11.328125 "/></g></g></g><g fill="#ffffff" fill-opacity="1"><g transform="translate(348.526702, 93.015258)"><g><path d="M 11.640625 -14.3125 C 13.773438 -14.3125 15.585938 -13.5625 17.078125 -12.0625 C 18.578125 -10.570312 19.328125 -8.757812 19.328125 -6.625 C 19.328125 -4.53125 18.578125 -2.734375 17.078125 -1.234375 C 15.585938 0.253906 13.773438 1 11.640625 1 C 9.546875 1 7.75 0.253906 6.25 -1.234375 C 4.757812 -2.734375 4.015625 -4.53125 4.015625 -6.625 C 4.015625 -8.757812 4.757812 -10.570312 6.25 -12.0625 C 7.75 -13.5625 9.546875 -14.3125 11.640625 -14.3125 Z M 11.640625 -14.3125 "/></g></g></g><g clip-path="url(#6128abfdfa)"><path fill="#9afd8d" d="M 255.386719 97.253906 L 367.375 97.253906 L 367.375 129.613281 L 255.386719 129.613281 Z M 255.386719 97.253906 " fill-opacity="1" fill-rule="nonzero"/></g><g fill="#000000" fill-opacity="1"><g transform="translate(263.271581, 120.988938)"><g><path d="M 11.6875 0 L 10.890625 -2.046875 L 10.78125 -2.046875 C 10.09375 -1.171875 9.382812 -0.566406 8.65625 -0.234375 C 7.925781 0.0976562 6.972656 0.265625 5.796875 0.265625 C 4.359375 0.265625 3.222656 -0.144531 2.390625 -0.96875 C 1.566406 -1.789062 1.15625 -2.960938 1.15625 -4.484375 C 1.15625 -6.078125 1.710938 -7.25 2.828125 -8 C 3.941406 -8.757812 5.625 -9.179688 7.875 -9.265625 L 10.46875 -9.34375 L 10.46875 -10 C 10.46875 -11.519531 9.691406 -12.28125 8.140625 -12.28125 C 6.941406 -12.28125 5.53125 -11.921875 3.90625 -11.203125 L 2.546875 -13.96875 C 4.273438 -14.875 6.191406 -15.328125 8.296875 -15.328125 C 10.304688 -15.328125 11.847656 -14.882812 12.921875 -14 C 14.003906 -13.125 14.546875 -11.789062 14.546875 -10 L 14.546875 0 Z M 10.46875 -6.953125 L 8.890625 -6.90625 C 7.703125 -6.863281 6.816406 -6.644531 6.234375 -6.25 C 5.648438 -5.863281 5.359375 -5.265625 5.359375 -4.453125 C 5.359375 -3.296875 6.019531 -2.71875 7.34375 -2.71875 C 8.289062 -2.71875 9.046875 -2.988281 9.609375 -3.53125 C 10.179688 -4.082031 10.46875 -4.8125 10.46875 -5.71875 Z M 10.46875 -6.953125 "/></g></g></g><g fill="#000000" fill-opacity="1"><g transform="translate(279.882301, 120.988938)"><g><path d="M 15.21875 -15.015625 L 15.21875 -12.9375 L 12.859375 -12.328125 C 13.296875 -11.648438 13.515625 -10.898438 13.515625 -10.078125 C 13.515625 -8.460938 12.953125 -7.203125 11.828125 -6.296875 C 10.703125 -5.398438 9.140625 -4.953125 7.140625 -4.953125 L 6.40625 -5 L 5.796875 -5.0625 C 5.378906 -4.738281 5.171875 -4.378906 5.171875 -3.984375 C 5.171875 -3.398438 5.921875 -3.109375 7.421875 -3.109375 L 9.984375 -3.109375 C 11.628906 -3.109375 12.882812 -2.753906 13.75 -2.046875 C 14.613281 -1.335938 15.046875 -0.296875 15.046875 1.078125 C 15.046875 2.828125 14.3125 4.1875 12.84375 5.15625 C 11.375 6.125 9.273438 6.609375 6.546875 6.609375 C 4.441406 6.609375 2.835938 6.242188 1.734375 5.515625 C 0.628906 4.785156 0.078125 3.757812 0.078125 2.4375 C 0.078125 1.539062 0.359375 0.785156 0.921875 0.171875 C 1.484375 -0.429688 2.3125 -0.863281 3.40625 -1.125 C 2.988281 -1.300781 2.625 -1.59375 2.3125 -2 C 2 -2.414062 1.84375 -2.847656 1.84375 -3.296875 C 1.84375 -3.867188 2.003906 -4.34375 2.328125 -4.71875 C 2.660156 -5.101562 3.140625 -5.484375 3.765625 -5.859375 C 2.984375 -6.191406 2.359375 -6.734375 1.890625 -7.484375 C 1.429688 -8.242188 1.203125 -9.132812 1.203125 -10.15625 C 1.203125 -11.789062 1.734375 -13.054688 2.796875 -13.953125 C 3.867188 -14.847656 5.394531 -15.296875 7.375 -15.296875 C 7.789062 -15.296875 8.285156 -15.253906 8.859375 -15.171875 C 9.441406 -15.097656 9.816406 -15.046875 9.984375 -15.015625 Z M 3.625 2.125 C 3.625 2.6875 3.894531 3.128906 4.4375 3.453125 C 4.976562 3.773438 5.738281 3.9375 6.71875 3.9375 C 8.1875 3.9375 9.332031 3.734375 10.15625 3.328125 C 10.988281 2.921875 11.40625 2.367188 11.40625 1.671875 C 11.40625 1.109375 11.160156 0.71875 10.671875 0.5 C 10.179688 0.289062 9.421875 0.1875 8.390625 0.1875 L 6.265625 0.1875 C 5.515625 0.1875 4.882812 0.363281 4.375 0.71875 C 3.875 1.070312 3.625 1.539062 3.625 2.125 Z M 5.109375 -10.09375 C 5.109375 -9.28125 5.296875 -8.632812 5.671875 -8.15625 C 6.046875 -7.6875 6.613281 -7.453125 7.375 -7.453125 C 8.144531 -7.453125 8.707031 -7.6875 9.0625 -8.15625 C 9.414062 -8.632812 9.59375 -9.28125 9.59375 -10.09375 C 9.59375 -11.90625 8.851562 -12.8125 7.375 -12.8125 C 5.863281 -12.8125 5.109375 -11.90625 5.109375 -10.09375 Z M 5.109375 -10.09375 "/></g></g></g><g fill="#000000" fill-opacity="1"><g transform="translate(295.418763, 120.988938)"><g><path d="M 8.359375 -12.375 C 7.492188 -12.375 6.816406 -12.097656 6.328125 -11.546875 C 5.835938 -11.003906 5.554688 -10.226562 5.484375 -9.21875 L 11.21875 -9.21875 C 11.207031 -10.226562 10.945312 -11.003906 10.4375 -11.546875 C 9.925781 -12.097656 9.234375 -12.375 8.359375 -12.375 Z M 8.9375 0.265625 C 6.519531 0.265625 4.628906 -0.398438 3.265625 -1.734375 C 1.910156 -3.066406 1.234375 -4.957031 1.234375 -7.40625 C 1.234375 -9.914062 1.863281 -11.859375 3.125 -13.234375 C 4.382812 -14.609375 6.125 -15.296875 8.34375 -15.296875 C 10.457031 -15.296875 12.101562 -14.691406 13.28125 -13.484375 C 14.46875 -12.273438 15.0625 -10.601562 15.0625 -8.46875 L 15.0625 -6.484375 L 5.390625 -6.484375 C 5.429688 -5.316406 5.773438 -4.40625 6.421875 -3.75 C 7.066406 -3.101562 7.96875 -2.78125 9.125 -2.78125 C 10.03125 -2.78125 10.882812 -2.875 11.6875 -3.0625 C 12.5 -3.25 13.34375 -3.550781 14.21875 -3.96875 L 14.21875 -0.796875 C 13.5 -0.429688 12.734375 -0.164062 11.921875 0 C 11.109375 0.175781 10.113281 0.265625 8.9375 0.265625 Z M 8.9375 0.265625 "/></g></g></g><g fill="#000000" fill-opacity="1"><g transform="translate(311.666915, 120.988938)"><g><path d="M 16 0 L 11.90625 0 L 11.90625 -8.765625 C 11.90625 -9.847656 11.710938 -10.660156 11.328125 -11.203125 C 10.941406 -11.742188 10.332031 -12.015625 9.5 -12.015625 C 8.351562 -12.015625 7.523438 -11.628906 7.015625 -10.859375 C 6.503906 -10.097656 6.25 -8.832031 6.25 -7.0625 L 6.25 0 L 2.15625 0 L 2.15625 -15.015625 L 5.28125 -15.015625 L 5.828125 -13.09375 L 6.0625 -13.09375 C 6.507812 -13.820312 7.132812 -14.367188 7.9375 -14.734375 C 8.738281 -15.109375 9.648438 -15.296875 10.671875 -15.296875 C 12.421875 -15.296875 13.742188 -14.820312 14.640625 -13.875 C 15.546875 -12.9375 16 -11.570312 16 -9.78125 Z M 16 0 "/></g></g></g><g fill="#000000" fill-opacity="1"><g transform="translate(329.741307, 120.988938)"><g><path d="M 8.25 0.265625 C 3.570312 0.265625 1.234375 -2.296875 1.234375 -7.421875 C 1.234375 -9.972656 1.867188 -11.921875 3.140625 -13.265625 C 4.410156 -14.617188 6.234375 -15.296875 8.609375 -15.296875 C 10.347656 -15.296875 11.90625 -14.957031 13.28125 -14.28125 L 12.078125 -11.109375 C 11.429688 -11.367188 10.828125 -11.578125 10.265625 -11.734375 C 9.710938 -11.898438 9.160156 -11.984375 8.609375 -11.984375 C 6.472656 -11.984375 5.40625 -10.472656 5.40625 -7.453125 C 5.40625 -4.515625 6.472656 -3.046875 8.609375 -3.046875 C 9.390625 -3.046875 10.113281 -3.148438 10.78125 -3.359375 C 11.457031 -3.566406 12.132812 -3.894531 12.8125 -4.34375 L 12.8125 -0.84375 C 12.144531 -0.425781 11.472656 -0.140625 10.796875 0.015625 C 10.117188 0.179688 9.269531 0.265625 8.25 0.265625 Z M 8.25 0.265625 "/></g></g></g><g fill="#000000" fill-opacity="1"><g transform="translate(343.881233, 120.988938)"><g><path d="M 0 -15.015625 L 4.484375 -15.015625 L 7.3125 -6.5625 C 7.5625 -5.832031 7.726562 -4.96875 7.8125 -3.96875 L 7.890625 -3.96875 C 7.992188 -4.882812 8.1875 -5.75 8.46875 -6.5625 L 11.25 -15.015625 L 15.640625 -15.015625 L 9.296875 1.921875 C 8.710938 3.484375 7.878906 4.65625 6.796875 5.4375 C 5.722656 6.21875 4.460938 6.609375 3.015625 6.609375 C 2.304688 6.609375 1.613281 6.53125 0.9375 6.375 L 0.9375 3.125 C 1.425781 3.238281 1.960938 3.296875 2.546875 3.296875 C 3.273438 3.296875 3.910156 3.070312 4.453125 2.625 C 4.992188 2.1875 5.414062 1.519531 5.71875 0.625 L 5.96875 -0.109375 Z M 0 -15.015625 "/></g></g></g></svg>