<svg xmlns="http://www.w3.org/2000/svg" xmlns:xlink="http://www.w3.org/1999/xlink" width="500" zoomAndPan="magnify" viewBox="0 0 375 112.499997" height="150" preserveAspectRatio="xMidYMid meet" version="1.0"><defs><g/><clipPath id="909a303cd2"><path d="M 25 25.292969 L 90 25.292969 L 90 38 L 25 38 Z M 25 25.292969 " clip-rule="nonzero"/></clipPath><clipPath id="fff1a942f0"><path d="M 12.03125 55 L 103 55 L 103 85 L 12.03125 85 Z M 12.03125 55 " clip-rule="nonzero"/></clipPath><clipPath id="1979da37d8"><path d="M 12.03125 39 L 103.125 39 L 103.125 72 L 12.03125 72 Z M 12.03125 39 " clip-rule="nonzero"/></clipPath></defs><g fill="#ffffff" fill-opacity="1"><g transform="translate(112.688516, 75.616452)"><g><path d="M 13.90625 -8.453125 L 29.96875 -8.453125 L 29.96875 0 L 4.796875 0 L 4.796875 -41.953125 L 13.90625 -41.953125 Z M 13.90625 -8.453125 "/></g></g></g><g fill="#ffffff" fill-opacity="1"><g transform="translate(140.5544, 75.616452)"><g><path d="M 4.203125 -36.6875 L 4.203125 -44.828125 L 12.953125 -44.828125 L 12.953125 -36.6875 Z M 4.203125 0 L 4.203125 -32.359375 L 12.953125 -32.359375 L 12.953125 0 Z M 4.203125 0 "/></g></g></g><g fill="#ffffff" fill-opacity="1"><g transform="translate(154.276992, 75.616452)"><g><path d="M 15.703125 0.90625 C 12.984375 0.90625 10.601562 0.425781 8.5625 -0.53125 C 6.53125 -1.5 4.941406 -2.847656 3.796875 -4.578125 C 2.660156 -6.316406 2.09375 -8.347656 2.09375 -10.671875 L 10.609375 -10.671875 C 10.648438 -9.234375 11.171875 -8.15625 12.171875 -7.4375 C 13.171875 -6.71875 14.445312 -6.359375 16 -6.359375 C 17.238281 -6.359375 18.316406 -6.625 19.234375 -7.15625 C 20.160156 -7.695312 20.625 -8.507812 20.625 -9.59375 C 20.625 -10.707031 20.015625 -11.492188 18.796875 -11.953125 C 17.578125 -12.410156 16.109375 -12.78125 14.390625 -13.0625 C 13.109375 -13.257812 11.773438 -13.535156 10.390625 -13.890625 C 9.015625 -14.253906 7.75 -14.773438 6.59375 -15.453125 C 5.4375 -16.140625 4.488281 -17.082031 3.75 -18.28125 C 3.007812 -19.476562 2.640625 -21.035156 2.640625 -22.953125 C 2.640625 -24.992188 3.1875 -26.789062 4.28125 -28.34375 C 5.382812 -29.90625 6.90625 -31.113281 8.84375 -31.96875 C 10.78125 -32.832031 13.066406 -33.265625 15.703125 -33.265625 C 18.296875 -33.265625 20.5625 -32.8125 22.5 -31.90625 C 24.4375 -31.007812 25.945312 -29.753906 27.03125 -28.140625 C 28.113281 -26.523438 28.65625 -24.632812 28.65625 -22.46875 L 20.3125 -22.46875 C 20.3125 -23.75 19.878906 -24.707031 19.015625 -25.34375 C 18.160156 -25.988281 16.976562 -26.3125 15.46875 -26.3125 C 14.101562 -26.3125 13.039062 -26.019531 12.28125 -25.4375 C 11.519531 -24.863281 11.140625 -24.117188 11.140625 -23.203125 C 11.140625 -22.117188 11.738281 -21.375 12.9375 -20.96875 C 14.144531 -20.570312 15.585938 -20.234375 17.265625 -19.953125 C 18.578125 -19.710938 19.929688 -19.421875 21.328125 -19.078125 C 22.734375 -18.742188 24.035156 -18.238281 25.234375 -17.5625 C 26.429688 -16.882812 27.398438 -15.945312 28.140625 -14.75 C 28.878906 -13.550781 29.25 -11.972656 29.25 -10.015625 C 29.25 -7.816406 28.6875 -5.894531 27.5625 -4.25 C 26.445312 -2.613281 24.867188 -1.34375 22.828125 -0.4375 C 20.796875 0.457031 18.421875 0.90625 15.703125 0.90625 Z M 15.703125 0.90625 "/></g></g></g><g fill="#ffffff" fill-opacity="1"><g transform="translate(182.322671, 75.616452)"><g><path d="M 20.015625 -7.796875 L 23.96875 -7.796875 L 23.96875 0 L 17.796875 0 C 14.242188 0 11.4375 -1.023438 9.375 -3.078125 C 7.320312 -5.140625 6.296875 -7.96875 6.296875 -11.5625 L 6.296875 -25.359375 L 0.421875 -25.359375 L 0.421875 -27.21875 L 13.25 -40.8125 L 14.859375 -40.8125 L 14.859375 -32.359375 L 23.796875 -32.359375 L 23.796875 -25.359375 L 15.046875 -25.359375 L 15.046875 -12.703125 C 15.046875 -11.148438 15.472656 -9.941406 16.328125 -9.078125 C 17.191406 -8.222656 18.421875 -7.796875 20.015625 -7.796875 Z M 20.015625 -7.796875 "/></g></g></g><g fill="#ffffff" fill-opacity="1"><g transform="translate(204.675063, 75.616452)"><g><path d="M 30.625 -32.421875 L 37.15625 -32.421875 L 37.15625 -0.0625 L 30.265625 -0.0625 L 29.546875 -2.9375 C 28.148438 -1.738281 26.5625 -0.796875 24.78125 -0.109375 C 23 0.566406 21.09375 0.90625 19.0625 0.90625 C 15.820312 0.90625 12.921875 0.15625 10.359375 -1.34375 C 7.804688 -2.84375 5.789062 -4.878906 4.3125 -7.453125 C 2.832031 -10.035156 2.09375 -12.96875 2.09375 -16.25 C 2.09375 -19.476562 2.832031 -22.378906 4.3125 -24.953125 C 5.789062 -27.535156 7.804688 -29.566406 10.359375 -31.046875 C 12.921875 -32.523438 15.820312 -33.265625 19.0625 -33.265625 C 21.132812 -33.265625 23.070312 -32.914062 24.875 -32.21875 C 26.675781 -31.519531 28.273438 -30.550781 29.671875 -29.3125 Z M 19.78125 -7.375 C 21.457031 -7.375 22.960938 -7.753906 24.296875 -8.515625 C 25.640625 -9.273438 26.691406 -10.320312 27.453125 -11.65625 C 28.210938 -13 28.59375 -14.53125 28.59375 -16.25 C 28.59375 -17.925781 28.210938 -19.429688 27.453125 -20.765625 C 26.691406 -22.109375 25.640625 -23.164062 24.296875 -23.9375 C 22.960938 -24.71875 21.457031 -25.109375 19.78125 -25.109375 C 18.0625 -25.109375 16.539062 -24.71875 15.21875 -23.9375 C 13.90625 -23.164062 12.867188 -22.109375 12.109375 -20.765625 C 11.347656 -19.429688 10.96875 -17.925781 10.96875 -16.25 C 10.96875 -14.53125 11.347656 -13.007812 12.109375 -11.6875 C 12.867188 -10.363281 13.90625 -9.3125 15.21875 -8.53125 C 16.539062 -7.757812 18.0625 -7.375 19.78125 -7.375 Z M 19.78125 -7.375 "/></g></g></g><g fill="#d9d9d9" fill-opacity="1"><g transform="translate(242.140837, 77.043266)"><g><path d="M 24.390625 0.65625 C 21.273438 0.65625 18.410156 0.128906 15.796875 -0.921875 C 13.179688 -1.984375 10.898438 -3.484375 8.953125 -5.421875 C 7.015625 -7.359375 5.515625 -9.644531 4.453125 -12.28125 C 3.398438 -14.925781 2.875 -17.828125 2.875 -20.984375 C 2.875 -24.140625 3.398438 -27.035156 4.453125 -29.671875 C 5.515625 -32.304688 7.015625 -34.59375 8.953125 -36.53125 C 10.898438 -38.46875 13.179688 -39.960938 15.796875 -41.015625 C 18.410156 -42.078125 21.273438 -42.609375 24.390625 -42.609375 C 27.628906 -42.609375 30.597656 -42 33.296875 -40.78125 C 35.992188 -39.5625 38.289062 -37.84375 40.1875 -35.625 C 42.082031 -33.414062 43.429688 -30.789062 44.234375 -27.75 L 38.90625 -27.75 C 37.78125 -30.789062 35.9375 -33.164062 33.375 -34.875 C 30.820312 -36.59375 27.828125 -37.453125 24.390625 -37.453125 C 21.273438 -37.453125 18.5 -36.753906 16.0625 -35.359375 C 13.625 -33.960938 11.710938 -32.015625 10.328125 -29.515625 C 8.953125 -27.015625 8.265625 -24.171875 8.265625 -20.984375 C 8.265625 -17.742188 8.953125 -14.882812 10.328125 -12.40625 C 11.710938 -9.925781 13.625 -7.988281 16.0625 -6.59375 C 18.5 -5.195312 21.273438 -4.5 24.390625 -4.5 C 27.910156 -4.5 30.96875 -5.40625 33.5625 -7.21875 C 36.15625 -9.039062 37.992188 -11.566406 39.078125 -14.796875 L 44.46875 -14.796875 C 43.675781 -11.640625 42.316406 -8.898438 40.390625 -6.578125 C 38.472656 -4.265625 36.144531 -2.476562 33.40625 -1.21875 C 30.675781 0.03125 27.671875 0.65625 24.390625 0.65625 Z M 24.390625 0.65625 "/></g></g></g><g fill="#d9d9d9" fill-opacity="1"><g transform="translate(285.228748, 77.043266)"><g><path d="M 32.71875 -32.359375 L 36.796875 -32.359375 L 36.796875 0 L 32.546875 0 L 32 -4.921875 C 30.519531 -3.160156 28.691406 -1.78125 26.515625 -0.78125 C 24.335938 0.21875 21.929688 0.71875 19.296875 0.71875 C 16.140625 0.71875 13.289062 -0.0195312 10.75 -1.5 C 8.21875 -2.976562 6.222656 -4.992188 4.765625 -7.546875 C 3.304688 -10.109375 2.578125 -12.988281 2.578125 -16.1875 C 2.578125 -19.414062 3.304688 -22.300781 4.765625 -24.84375 C 6.222656 -27.382812 8.21875 -29.390625 10.75 -30.859375 C 13.289062 -32.335938 16.140625 -33.078125 19.296875 -33.078125 C 21.972656 -33.078125 24.398438 -32.566406 26.578125 -31.546875 C 28.753906 -30.535156 30.582031 -29.148438 32.0625 -27.390625 Z M 19.71875 -4.203125 C 22 -4.203125 24.035156 -4.71875 25.828125 -5.75 C 27.628906 -6.789062 29.039062 -8.21875 30.0625 -10.03125 C 31.082031 -11.851562 31.59375 -13.90625 31.59375 -16.1875 C 31.59375 -18.457031 31.082031 -20.5 30.0625 -22.3125 C 29.039062 -24.132812 27.628906 -25.566406 25.828125 -26.609375 C 24.035156 -27.648438 22 -28.171875 19.71875 -28.171875 C 17.4375 -28.171875 15.394531 -27.640625 13.59375 -26.578125 C 11.800781 -25.523438 10.382812 -24.097656 9.34375 -22.296875 C 8.3125 -20.492188 7.796875 -18.457031 7.796875 -16.1875 C 7.796875 -13.90625 8.3125 -11.863281 9.34375 -10.0625 C 10.382812 -8.269531 11.800781 -6.84375 13.59375 -5.78125 C 15.394531 -4.726562 17.4375 -4.203125 19.71875 -4.203125 Z M 19.71875 -4.203125 "/></g></g></g><g fill="#d9d9d9" fill-opacity="1"><g transform="translate(323.702105, 77.043266)"><g><path d="M 19.90625 -32.546875 L 22.78125 -32.546875 L 22.78125 -27.6875 L 19.484375 -27.6875 C 16.523438 -27.6875 14.242188 -26.785156 12.640625 -24.984375 C 11.046875 -23.191406 10.25 -20.71875 10.25 -17.5625 L 10.25 0 L 5.15625 0 L 5.15625 -32.359375 L 8.75 -32.359375 L 9.59375 -27.453125 C 10.75 -29.085938 12.175781 -30.34375 13.875 -31.21875 C 15.570312 -32.101562 17.582031 -32.546875 19.90625 -32.546875 Z M 19.90625 -32.546875 "/></g></g></g><g clip-path="url(#909a303cd2)"><path fill="#ffffff" d="M 34.308594 36.871094 L 80.796875 36.871094 C 83.464844 36.871094 86.667969 37.082031 89.757812 37.347656 L 86.730469 31.179688 C 86.304688 30.300781 85.761719 29.496094 85.109375 28.769531 C 84.457031 28.042969 83.71875 27.421875 82.890625 26.902344 C 82.0625 26.386719 81.179688 25.992188 80.242188 25.71875 C 79.300781 25.449219 78.34375 25.316406 77.367188 25.3125 L 37.71875 25.3125 C 36.742188 25.3125 35.78125 25.449219 34.84375 25.71875 C 33.902344 25.988281 33.019531 26.382812 32.191406 26.902344 C 31.363281 27.417969 30.621094 28.042969 29.96875 28.769531 C 29.316406 29.496094 28.777344 30.300781 28.347656 31.179688 L 25.351562 37.347656 C 28.4375 37.082031 31.640625 36.871094 34.308594 36.871094 Z M 34.308594 36.871094 " fill-opacity="1" fill-rule="nonzero"/></g><g clip-path="url(#fff1a942f0)"><path fill="#ffffff" d="M 82.644531 74.066406 C 75.777344 74.066406 70.496094 72.234375 66.492188 68.480469 C 62.96875 65.175781 60.988281 60.859375 59.371094 56.691406 L 59.351562 56.644531 L 59.351562 56.589844 C 59.078125 55.796875 58.332031 55.078125 57.5625 55.003906 C 56.789062 55.078125 56.042969 55.796875 55.773438 56.589844 L 55.753906 56.644531 L 55.734375 56.691406 C 54.117188 60.859375 52.132812 65.175781 48.617188 68.480469 C 44.613281 72.246094 39.328125 74.066406 32.464844 74.066406 C 27.082031 74.066406 16.953125 72.066406 12.597656 66.625 L 12.597656 71.453125 C 12.597656 71.882812 12.640625 72.304688 12.722656 72.726562 C 12.808594 73.144531 12.929688 73.550781 13.09375 73.949219 C 13.257812 74.34375 13.460938 74.71875 13.695312 75.074219 C 13.933594 75.429688 14.203125 75.757812 14.507812 76.0625 C 14.808594 76.363281 15.140625 76.632812 15.496094 76.871094 C 15.851562 77.109375 16.226562 77.3125 16.621094 77.476562 C 17.015625 77.636719 17.425781 77.761719 17.84375 77.84375 C 18.265625 77.929688 18.6875 77.972656 19.117188 77.972656 L 19.117188 83.289062 C 19.117188 83.503906 19.15625 83.707031 19.238281 83.902344 C 19.316406 84.097656 19.433594 84.269531 19.582031 84.417969 C 19.734375 84.566406 19.90625 84.683594 20.101562 84.765625 C 20.296875 84.84375 20.5 84.886719 20.710938 84.886719 L 31.328125 84.886719 C 31.542969 84.886719 31.746094 84.84375 31.941406 84.765625 C 32.136719 84.683594 32.308594 84.566406 32.457031 84.417969 C 32.605469 84.269531 32.722656 84.097656 32.804688 83.902344 C 32.882812 83.707031 32.925781 83.503906 32.925781 83.289062 L 32.925781 80.886719 C 32.925781 80.640625 32.972656 80.402344 33.066406 80.175781 C 33.160156 79.949219 33.292969 79.75 33.46875 79.578125 C 33.640625 79.402344 33.839844 79.269531 34.066406 79.175781 C 34.292969 79.082031 34.53125 79.035156 34.773438 79.035156 L 80.3125 79.035156 C 80.554688 79.035156 80.792969 79.082031 81.019531 79.175781 C 81.246094 79.269531 81.445312 79.402344 81.621094 79.578125 C 81.792969 79.75 81.925781 79.949219 82.019531 80.175781 C 82.113281 80.402344 82.160156 80.640625 82.160156 80.886719 L 82.160156 83.289062 C 82.160156 83.503906 82.203125 83.707031 82.285156 83.902344 C 82.363281 84.097656 82.480469 84.269531 82.628906 84.417969 C 82.777344 84.566406 82.949219 84.683594 83.144531 84.761719 C 83.339844 84.84375 83.542969 84.886719 83.757812 84.886719 L 94.410156 84.886719 C 94.621094 84.886719 94.824219 84.84375 95.019531 84.761719 C 95.214844 84.683594 95.386719 84.566406 95.535156 84.417969 C 95.6875 84.269531 95.800781 84.097656 95.882812 83.902344 C 95.964844 83.707031 96.003906 83.503906 96.003906 83.289062 L 96.003906 77.972656 C 96.433594 77.972656 96.855469 77.929688 97.277344 77.84375 C 97.695312 77.761719 98.101562 77.636719 98.5 77.476562 C 98.894531 77.3125 99.269531 77.109375 99.625 76.871094 C 99.980469 76.632812 100.308594 76.363281 100.613281 76.0625 C 100.914062 75.757812 101.183594 75.429688 101.421875 75.074219 C 101.660156 74.71875 101.859375 74.34375 102.023438 73.949219 C 102.1875 73.550781 102.3125 73.144531 102.394531 72.726562 C 102.476562 72.304688 102.519531 71.882812 102.519531 71.453125 L 102.519531 66.625 C 98.152344 72.066406 88.023438 74.066406 82.644531 74.066406 Z M 82.644531 74.066406 " fill-opacity="1" fill-rule="nonzero"/></g><g clip-path="url(#1979da37d8)"><path fill="#ff914d" d="M 102.960938 42.980469 C 102.855469 41.933594 102.558594 41.367188 101.214844 41.234375 C 100.570312 41.234375 98.824219 41.050781 96.617188 40.816406 C 92.210938 40.363281 85.554688 39.660156 80.796875 39.660156 C 75.210938 39.660156 70.273438 40.773438 65.910156 41.753906 C 62.671875 42.480469 59.898438 43.117188 57.589844 43.117188 L 57.496094 43.117188 C 55.191406 43.117188 52.414062 42.492188 49.195312 41.765625 C 44.835938 40.785156 39.890625 39.671875 34.308594 39.671875 C 29.53125 39.671875 22.875 40.371094 18.46875 40.835938 C 16.261719 41.070312 14.519531 41.257812 13.871094 41.257812 C 12.527344 41.378906 12.230469 41.953125 12.125 43 C 12.03125 43.847656 12.03125 45.882812 12.03125 47.226562 C 12.03125 48.273438 12.566406 48.621094 13.042969 48.722656 C 14.125 49.125 14.675781 49.796875 14.921875 51.011719 C 15.210938 53.21875 16.605469 60.300781 17.746094 63.246094 C 20.238281 69.179688 27.222656 71.277344 32.445312 71.277344 C 45.929688 71.277344 50.046875 63.574219 53.113281 55.671875 C 54.140625 52.695312 55.179688 50.226562 57.496094 50.226562 L 57.589844 50.226562 C 59.910156 50.226562 60.949219 52.695312 61.972656 55.671875 C 65.039062 63.574219 69.160156 71.277344 82.644531 71.277344 C 87.878906 71.277344 94.859375 69.179688 97.339844 63.246094 C 98.480469 60.300781 99.878906 53.21875 100.164062 51.03125 C 100.410156 49.816406 100.957031 49.140625 102.046875 48.738281 C 102.519531 48.644531 103.054688 48.308594 103.054688 47.242188 C 103.054688 45.882812 103.054688 43.847656 102.960938 42.980469 Z M 47.40625 61.480469 C 43 68 37.390625 68.902344 31.980469 68.902344 C 21.15625 68.902344 18.875 60.910156 18.875 54.210938 C 18.875 43.386719 23.339844 42.3125 34.308594 42.3125 C 42.234375 42.3125 50.777344 44.785156 50.777344 50.207031 C 50.777344 54.007812 49.074219 58.761719 47.40625 61.480469 Z M 83.105469 68.902344 C 77.699219 68.902344 72.085938 68 67.683594 61.480469 C 66.015625 58.761719 64.316406 54.007812 64.316406 50.207031 C 64.316406 44.785156 72.851562 42.3125 80.777344 42.3125 C 91.746094 42.3125 96.214844 43.386719 96.214844 54.210938 C 96.214844 60.917969 93.9375 68.902344 83.105469 68.902344 Z M 83.105469 68.902344 " fill-opacity="1" fill-rule="nonzero"/></g><path fill="#d9d9d9" d="M 35.628906 47.363281 C 35.175781 47.363281 34.722656 47.410156 34.277344 47.496094 C 33.828125 47.585938 33.394531 47.71875 32.972656 47.894531 C 32.550781 48.066406 32.152344 48.28125 31.773438 48.535156 C 31.394531 48.789062 31.042969 49.078125 30.722656 49.398438 C 30.398438 49.722656 30.113281 50.074219 29.859375 50.453125 C 29.605469 50.832031 29.390625 51.230469 29.21875 51.652344 C 29.042969 52.074219 28.910156 52.507812 28.824219 52.957031 C 28.734375 53.402344 28.691406 53.855469 28.691406 54.308594 C 28.691406 54.765625 28.734375 55.21875 28.824219 55.664062 C 28.914062 56.109375 29.046875 56.546875 29.222656 56.964844 C 29.398438 57.386719 29.609375 57.789062 29.863281 58.167969 C 30.117188 58.542969 30.40625 58.894531 30.730469 59.21875 C 31.050781 59.539062 31.402344 59.828125 31.78125 60.078125 C 32.164062 60.332031 32.5625 60.546875 32.984375 60.71875 C 33.40625 60.894531 33.839844 61.023438 34.289062 61.113281 C 34.734375 61.199219 35.1875 61.246094 35.640625 61.242188 C 36.097656 61.242188 36.550781 61.199219 36.996094 61.109375 C 37.441406 61.019531 37.878906 60.886719 38.296875 60.710938 C 38.71875 60.535156 39.117188 60.320312 39.496094 60.066406 C 39.875 59.8125 40.226562 59.523438 40.546875 59.199219 C 40.871094 58.878906 41.15625 58.527344 41.410156 58.148438 C 41.660156 57.765625 41.875 57.367188 42.046875 56.945312 C 42.222656 56.523438 42.351562 56.089844 42.441406 55.640625 C 42.527344 55.195312 42.570312 54.742188 42.570312 54.285156 C 42.570312 53.832031 42.523438 53.382812 42.433594 52.933594 C 42.34375 52.488281 42.210938 52.054688 42.035156 51.636719 C 41.863281 51.214844 41.648438 50.816406 41.394531 50.441406 C 41.140625 50.0625 40.851562 49.710938 40.53125 49.390625 C 40.210938 49.070312 39.859375 48.78125 39.480469 48.53125 C 39.101562 48.277344 38.703125 48.066406 38.28125 47.890625 C 37.863281 47.71875 37.429688 47.585938 36.980469 47.496094 C 36.535156 47.410156 36.085938 47.363281 35.628906 47.363281 Z M 35.628906 55.527344 C 35.152344 55.527344 34.6875 55.4375 34.246094 55.25 C 33.804688 55.066406 33.410156 54.804688 33.074219 54.464844 C 32.734375 54.125 32.472656 53.734375 32.289062 53.289062 C 32.109375 52.84375 32.015625 52.382812 32.015625 51.902344 C 32.019531 51.421875 32.109375 50.960938 32.296875 50.519531 C 32.480469 50.074219 32.742188 49.683594 33.082031 49.347656 C 33.421875 49.007812 33.8125 48.746094 34.257812 48.5625 C 34.699219 48.378906 35.160156 48.289062 35.640625 48.289062 C 36.121094 48.289062 36.582031 48.382812 37.027344 48.566406 C 37.46875 48.75 37.859375 49.011719 38.199219 49.351562 C 38.539062 49.691406 38.800781 50.085938 38.984375 50.527344 C 39.167969 50.972656 39.257812 51.433594 39.257812 51.914062 C 39.257812 52.394531 39.164062 52.855469 38.980469 53.296875 C 38.796875 53.742188 38.535156 54.132812 38.191406 54.472656 C 37.851562 54.8125 37.460938 55.074219 37.015625 55.257812 C 36.574219 55.4375 36.109375 55.53125 35.628906 55.527344 Z M 35.628906 55.527344 " fill-opacity="1" fill-rule="evenodd"/><path fill="#d9d9d9" d="M 79.457031 47.363281 C 79 47.363281 78.546875 47.40625 78.101562 47.496094 C 77.652344 47.582031 77.21875 47.714844 76.796875 47.886719 C 76.375 48.0625 75.972656 48.277344 75.59375 48.527344 C 75.214844 48.78125 74.863281 49.070312 74.542969 49.390625 C 74.21875 49.714844 73.929688 50.0625 73.675781 50.441406 C 73.421875 50.820312 73.207031 51.222656 73.03125 51.644531 C 72.859375 52.0625 72.726562 52.5 72.636719 52.945312 C 72.546875 53.394531 72.503906 53.84375 72.503906 54.300781 C 72.503906 54.757812 72.546875 55.207031 72.636719 55.65625 C 72.722656 56.101562 72.855469 56.539062 73.03125 56.957031 C 73.203125 57.378906 73.417969 57.78125 73.671875 58.160156 C 73.925781 58.539062 74.214844 58.890625 74.535156 59.210938 C 74.859375 59.535156 75.210938 59.824219 75.589844 60.074219 C 75.96875 60.328125 76.367188 60.542969 76.789062 60.71875 C 77.210938 60.890625 77.644531 61.023438 78.09375 61.109375 C 78.539062 61.199219 78.992188 61.242188 79.449219 61.242188 C 79.90625 61.242188 80.355469 61.199219 80.804688 61.109375 C 81.25 61.019531 81.683594 60.886719 82.105469 60.710938 C 82.527344 60.535156 82.925781 60.320312 83.304688 60.066406 C 83.683594 59.8125 84.035156 59.523438 84.355469 59.203125 C 84.679688 58.878906 84.964844 58.527344 85.21875 58.148438 C 85.472656 57.769531 85.683594 57.367188 85.859375 56.945312 C 86.03125 56.523438 86.164062 56.089844 86.25 55.640625 C 86.339844 55.195312 86.382812 54.742188 86.382812 54.285156 C 86.378906 53.832031 86.335938 53.382812 86.246094 52.9375 C 86.15625 52.492188 86.023438 52.058594 85.847656 51.640625 C 85.675781 51.21875 85.460938 50.820312 85.207031 50.445312 C 84.957031 50.066406 84.667969 49.71875 84.347656 49.394531 C 84.027344 49.074219 83.675781 48.789062 83.300781 48.535156 C 82.921875 48.28125 82.523438 48.070312 82.101562 47.894531 C 81.683594 47.722656 81.25 47.589844 80.804688 47.5 C 80.359375 47.410156 79.910156 47.367188 79.457031 47.363281 Z M 79.457031 55.527344 C 78.976562 55.527344 78.515625 55.4375 78.070312 55.253906 C 77.625 55.070312 77.234375 54.808594 76.894531 54.46875 C 76.554688 54.128906 76.292969 53.738281 76.109375 53.292969 C 75.925781 52.851562 75.835938 52.386719 75.835938 51.910156 C 75.835938 51.429688 75.929688 50.964844 76.113281 50.523438 C 76.296875 50.078125 76.558594 49.6875 76.898438 49.347656 C 77.238281 49.007812 77.628906 48.746094 78.074219 48.5625 C 78.515625 48.378906 78.976562 48.289062 79.457031 48.289062 C 79.9375 48.289062 80.398438 48.382812 80.84375 48.566406 C 81.285156 48.75 81.679688 49.011719 82.015625 49.351562 C 82.355469 49.691406 82.617188 50.082031 82.800781 50.527344 C 82.984375 50.972656 83.074219 51.433594 83.074219 51.914062 C 83.074219 52.394531 82.984375 52.855469 82.800781 53.296875 C 82.613281 53.738281 82.351562 54.132812 82.015625 54.46875 C 81.675781 54.808594 81.285156 55.070312 80.839844 55.253906 C 80.398438 55.4375 79.933594 55.527344 79.457031 55.527344 Z M 79.457031 55.527344 " fill-opacity="1" fill-rule="evenodd"/></svg>